<svg width="70" height="70" viewBox="0 0 70 70" fill="none" xmlns="http://www.w3.org/2000/svg">
<path d="M25.5209 10.2084V5.83337C25.5209 4.63754 24.5292 3.64587 23.3334 3.64587C22.1375 3.64587 21.1459 4.63754 21.1459 5.83337V10.3834C21.875 10.2959 22.5459 10.2084 23.3334 10.2084H25.5209Z" fill="#02825C"/>
<path d="M48.8541 10.3834V5.83337C48.8541 4.63754 47.8625 3.64587 46.6666 3.64587C45.4708 3.64587 44.4791 4.63754 44.4791 5.83337V10.2084H46.6666C47.4541 10.2084 48.125 10.2959 48.8541 10.3834Z" fill="#02825C"/>
<path d="M48.8542 10.3834V14.5834C48.8542 15.7792 47.8625 16.7709 46.6667 16.7709C45.4708 16.7709 44.4792 15.7792 44.4792 14.5834V10.2084H25.5208V14.5834C25.5208 15.7792 24.5292 16.7709 23.3333 16.7709C22.1375 16.7709 21.1458 15.7792 21.1458 14.5834V10.3834C12.5417 11.1709 8.75 16.7125 8.75 24.7917V49.5834C8.75 58.3334 13.125 64.1667 23.3333 64.1667H46.6667C56.875 64.1667 61.25 58.3334 61.25 49.5834V24.7917C61.25 16.7125 57.4583 11.1709 48.8542 10.3834ZM35 48.8542H23.3333C22.1375 48.8542 21.1458 47.8625 21.1458 46.6667C21.1458 45.4709 22.1375 44.4792 23.3333 44.4792H35C36.1958 44.4792 37.1875 45.4709 37.1875 46.6667C37.1875 47.8625 36.1958 48.8542 35 48.8542ZM46.6667 34.2709H23.3333C22.1375 34.2709 21.1458 33.2792 21.1458 32.0834C21.1458 30.8875 22.1375 29.8959 23.3333 29.8959H46.6667C47.8625 29.8959 48.8542 30.8875 48.8542 32.0834C48.8542 33.2792 47.8625 34.2709 46.6667 34.2709Z" fill="#02825C"/>
</svg>
