<svg width="45" height="45" viewBox="0 0 30 30" fill="none" xmlns="http://www.w3.org/2000/svg">
<path d="M15 2.5C12.5277 2.5 10.111 3.23311 8.05538 4.60663C5.99976 5.98015 4.39761 7.93238 3.45151 10.2165C2.50542 12.5005 2.25787 15.0139 2.74019 17.4386C3.2225 19.8634 4.41301 22.0907 6.16117 23.8388C7.90933 25.587 10.1366 26.7775 12.5614 27.2598C14.9861 27.7421 17.4995 27.4946 19.7836 26.5485C22.0676 25.6024 24.0199 24.0002 25.3934 21.9446C26.7669 19.889 27.5 17.4723 27.5 15C27.5 13.3585 27.1767 11.733 26.5485 10.2165C25.9203 8.69989 24.9996 7.3219 23.8388 6.16116C22.6781 5.00043 21.3001 4.07969 19.7836 3.45151C18.267 2.82332 16.6415 2.5 15 2.5ZM22.095 12.7962L14.595 19.6712C14.3575 19.889 14.0452 20.0066 13.7231 19.9996C13.401 19.9927 13.094 19.8616 12.8663 19.6337L9.11626 15.8837C8.99687 15.7684 8.90164 15.6305 8.83613 15.478C8.77062 15.3255 8.73613 15.1615 8.73469 14.9955C8.73325 14.8295 8.76488 14.6649 8.82773 14.5113C8.89058 14.3577 8.9834 14.2181 9.10076 14.1008C9.21813 13.9834 9.35769 13.8906 9.51131 13.8277C9.66493 13.7649 9.82953 13.7332 9.99551 13.7347C10.1615 13.7361 10.3255 13.7706 10.478 13.8361C10.6305 13.9016 10.7684 13.9969 10.8838 14.1162L13.7875 17.02L20.405 10.9537C20.6493 10.7296 20.9727 10.6118 21.3039 10.6261C21.6352 10.6404 21.9471 10.7857 22.1713 11.03C22.3954 11.2743 22.5132 11.5977 22.4989 11.9289C22.4846 12.2602 22.3393 12.5721 22.095 12.7962Z" fill="#02825c"/>
</svg>
