<svg width="100" height="100" viewBox="0 0 100 100" fill="none" xmlns="http://www.w3.org/2000/svg">
<g clip-path="url(#clip0_14_812)">
<path d="M31.25 3.125H50V19.1562C50 19.8773 49.7136 20.5688 49.2037 21.0787C48.6938 21.5886 48.0023 21.875 47.2812 21.875H33.9687C33.2477 21.875 32.5562 21.5886 32.0463 21.0787C31.5364 20.5688 31.25 19.8773 31.25 19.1562V3.125Z" fill="#02825C" fill-opacity="0.53"/>
<path d="M34.375 81.25H9.375C6.8886 81.25 4.50403 80.2623 2.74587 78.5041C0.98772 76.746 0 74.3614 0 71.875L0 9.375C0 6.8886 0.98772 4.50403 2.74587 2.74587C4.50403 0.98772 6.8886 0 9.375 0L71.875 0C74.3614 0 76.746 0.98772 78.5041 2.74587C80.2623 4.50403 81.25 6.8886 81.25 9.375V34.375C81.25 35.2038 80.9208 35.9987 80.3347 36.5847C79.7487 37.1708 78.9538 37.5 78.125 37.5C77.2962 37.5 76.5013 37.1708 75.9153 36.5847C75.3292 35.9987 75 35.2038 75 34.375V9.375C75 8.5462 74.6708 7.75134 74.0847 7.16529C73.4987 6.57924 72.7038 6.25 71.875 6.25H9.375C8.5462 6.25 7.75134 6.57924 7.16529 7.16529C6.57924 7.75134 6.25 8.5462 6.25 9.375V71.875C6.25 72.7038 6.57924 73.4987 7.16529 74.0847C7.75134 74.6708 8.5462 75 9.375 75H34.375C35.2038 75 35.9987 75.3292 36.5847 75.9153C37.1708 76.5013 37.5 77.2962 37.5 78.125C37.5 78.9538 37.1708 79.7487 36.5847 80.3347C35.9987 80.9208 35.2038 81.25 34.375 81.25Z" fill="#02825C"/>
<path d="M21.875 68.75H15.625C14.7962 68.75 14.0013 68.4208 13.4153 67.8347C12.8292 67.2487 12.5 66.4538 12.5 65.625C12.5 64.7962 12.8292 64.0013 13.4153 63.4153C14.0013 62.8292 14.7962 62.5 15.625 62.5H21.875C22.7038 62.5 23.4987 62.8292 24.0847 63.4153C24.6708 64.0013 25 64.7962 25 65.625C25 66.4538 24.6708 67.2487 24.0847 67.8347C23.4987 68.4208 22.7038 68.75 21.875 68.75Z" fill="#02825C"/>
<path d="M71.875 100C66.3124 100 60.8747 98.3505 56.2496 95.2601C51.6245 92.1697 48.0196 87.7772 45.8909 82.638C43.7622 77.4988 43.2052 71.8438 44.2904 66.3881C45.3756 60.9324 48.0543 55.921 51.9876 51.9876C55.921 48.0543 60.9324 45.3756 66.3881 44.2904C71.8438 43.2052 77.4988 43.7622 82.638 45.8909C87.7772 48.0196 92.1697 51.6245 95.2601 56.2496C98.3505 60.8747 100 66.3124 100 71.875C100 79.3342 97.0368 86.4879 91.7624 91.7624C86.4879 97.0368 79.3342 100 71.875 100ZM71.875 50C67.5485 50 63.3192 51.283 59.7219 53.6866C56.1246 56.0903 53.3208 59.5067 51.6651 63.5038C50.0095 67.5009 49.5763 71.8993 50.4203 76.1426C51.2644 80.3859 53.3478 84.2837 56.4071 87.343C59.4663 90.4022 63.3641 92.4856 67.6074 93.3297C71.8507 94.1737 76.2491 93.7405 80.2462 92.0849C84.2433 90.4292 87.6598 87.6254 90.0634 84.0281C92.4671 80.4308 93.75 76.2015 93.75 71.875C93.75 66.0734 91.4453 60.5094 87.343 56.4071C83.2406 52.3047 77.6766 50 71.875 50Z" fill="#02825C"/>
<path d="M71.875 87.5C80.5044 87.5 87.5 80.5044 87.5 71.875C87.5 63.2456 80.5044 56.25 71.875 56.25C63.2456 56.25 56.25 63.2456 56.25 71.875C56.25 80.5044 63.2456 87.5 71.875 87.5Z" fill="#02825C" fill-opacity="0.53"/>
<path d="M71.8751 81.25C71.4638 81.2523 71.0561 81.1735 70.6754 81.018C70.2946 80.8625 69.9483 80.6333 69.6563 80.3437L63.4063 74.0937C62.8179 73.5053 62.4873 72.7072 62.4873 71.875C62.4873 71.0428 62.8179 70.2447 63.4063 69.6562C63.9948 69.0678 64.7929 68.7372 65.6251 68.7372C66.4573 68.7372 67.2554 69.0678 67.8438 69.6562L71.8751 73.7187L82.1563 63.4062C82.7448 62.8178 83.5429 62.4872 84.3751 62.4872C85.2073 62.4872 86.0054 62.8178 86.5938 63.4062C87.1823 63.9947 87.5129 64.7928 87.5129 65.625C87.5129 66.4572 87.1823 67.2553 86.5938 67.8437L74.0938 80.3437C73.8018 80.6333 73.4555 80.8625 73.0748 81.018C72.6941 81.1735 72.2864 81.2523 71.8751 81.25Z" fill="#02825C"/>
</g>
<defs>
<clipPath id="clip0_14_812">
<rect width="100" height="100" fill="white"/>
</clipPath>
</defs>
</svg>
