<svg width="25" height="25" viewBox="0 0 25 25" fill="none" xmlns="http://www.w3.org/2000/svg">
<g clip-path="url(#clip0_109_3)">
<path fill-rule="evenodd" clip-rule="evenodd" d="M5.37881 12.5001C5.37881 11.7062 5.51066 10.9451 5.74599 10.2312L1.62682 7.08569C0.824012 8.71569 0.371704 10.5524 0.371704 12.5001C0.371704 14.4462 0.823456 16.2818 1.62515 17.9107L5.7421 14.759C5.50899 14.0485 5.37881 13.2901 5.37881 12.5001Z" fill="#FBBC05"/>
<path fill-rule="evenodd" clip-rule="evenodd" d="M12.6113 5.27783C14.336 5.27783 15.8937 5.88894 17.1177 6.88894L20.6783 3.33339C18.5086 1.4445 15.7268 0.277832 12.6113 0.277832C7.77444 0.277832 3.61743 3.04394 1.62683 7.08561L5.74601 10.2312C6.69513 7.35005 9.40064 5.27783 12.6113 5.27783Z" fill="#EB4335"/>
<path fill-rule="evenodd" clip-rule="evenodd" d="M12.6113 19.7224C9.40064 19.7224 6.69513 17.6502 5.74601 14.769L1.62683 17.914C3.61743 21.9563 7.77444 24.7224 12.6113 24.7224C15.5966 24.7224 18.4468 23.6624 20.5859 21.6763L16.676 18.6535C15.5727 19.3485 14.1835 19.7224 12.6113 19.7224Z" fill="#34A853"/>
<path fill-rule="evenodd" clip-rule="evenodd" d="M24.2946 12.5001C24.2946 11.7778 24.1833 11.0001 24.0164 10.2778H12.6113V15.0001H19.1762C18.848 16.6101 17.9545 17.8478 16.676 18.6534L20.586 21.6762C22.833 19.5906 24.2946 16.4839 24.2946 12.5001Z" fill="#4285F4"/>
</g>
<defs>
<clipPath id="clip0_109_3">
<rect width="25" height="25" fill="white"/>
</clipPath>
</defs>
</svg>
